<?xml version="1.0" standalone="no"?>
<!DOCTYPE svg PUBLIC "-//W3C//DTD SVG 20010904//EN"
 "http://www.w3.org/TR/2001/REC-SVG-20010904/DTD/svg10.dtd">
<svg version="1.0" xmlns="http://www.w3.org/2000/svg"
 width="2610.000000pt" height="654.000000pt" viewBox="0 0 2610.000000 654.000000"
 preserveAspectRatio="xMidYMid meet">

<g transform="translate(0.000000,654.000000) scale(0.100000,-0.100000)"
fill="#ffffff" stroke="none">
<path d="M3501 6359 c-905 -80 -1727 -554 -2258 -1299 -234 -329 -416 -748
-497 -1140 -49 -239 -60 -356 -60 -635 0 -280 12 -408 61 -640 96 -460 319
-924 629 -1310 438 -544 1115 -959 1784 -1094 363 -73 764 -80 1132 -20 673
110 1318 465 1776 978 254 286 463 631 596 985 14 36 23 66 21 66 -3 0 -27
-45 -54 -99 -374 -745 -1001 -1318 -1744 -1595 -497 -185 -1088 -243 -1595
-155 -794 138 -1486 604 -1894 1275 -384 633 -495 1421 -303 2152 121 459 365
889 695 1222 386 391 890 643 1399 701 153 17 494 7 644 -20 496 -88 912 -294
1185 -586 228 -244 309 -502 219 -699 -57 -124 -153 -187 -298 -194 -182 -9
-274 47 -603 367 -241 235 -332 308 -479 386 -428 228 -998 178 -1465 -128
-406 -266 -712 -701 -842 -1200 -54 -206 -65 -299 -65 -562 1 -271 14 -391 70
-611 242 -950 1054 -1641 2017 -1715 251 -19 531 12 741 82 89 29 187 76 137
64 -274 -61 -450 -80 -665 -72 -458 19 -836 148 -1153 394 -322 251 -562 634
-652 1040 -63 287 -46 533 52 733 33 68 58 101 122 165 93 92 152 127 262 155
179 46 323 7 464 -127 93 -87 139 -146 310 -398 168 -247 241 -343 351 -460
286 -301 653 -475 1111 -524 144 -16 439 -14 568 4 521 73 973 359 1230 780
286 467 359 1126 190 1716 -128 446 -411 892 -775 1222 -474 429 -1050 694
-1695 782 -140 19 -526 27 -669 14z"/>
<path d="M9485 4754 c-513 -69 -908 -282 -1146 -617 -28 -40 -76 -121 -105
-182 -91 -189 -132 -366 -141 -610 -17 -457 115 -824 397 -1105 242 -242 569
-390 995 -452 132 -19 2638 -19 2657 0 18 18 18 146 0 164 -10 10 -242 14
-1185 18 -1259 6 -1201 4 -1362 56 -84 28 -216 101 -285 157 -170 142 -288
374 -342 676 -26 147 -36 515 -19 683 39 368 141 612 333 793 142 133 308 206
541 235 51 6 494 10 1187 10 934 0 1109 2 1125 14 16 11 20 27 20 78 0 34 -3
71 -7 81 -7 16 -77 17 -1285 16 -1016 -1 -1298 -4 -1378 -15z"/>
<path d="M13560 4763 c-563 -60 -869 -312 -986 -813 -47 -201 -47 -214 -51
-1210 -4 -889 -3 -945 13 -957 14 -10 103 -13 384 -13 340 0 368 1 383 18 15
16 17 121 19 1142 l3 1125 22 78 c68 239 201 370 432 424 69 16 138 18 756 18
633 0 685 -1 750 -19 245 -65 366 -196 432 -466 15 -57 17 -196 20 -1180 3
-1025 5 -1116 20 -1127 26 -20 796 -18 812 1 9 11 11 251 8 963 -3 1034 -2
1004 -63 1233 -30 113 -106 278 -168 364 -149 208 -374 335 -716 403 -76 15
-190 17 -1060 18 -536 1 -991 1 -1010 -2z"/>
<path d="M17640 4764 c-14 -2 -59 -9 -100 -15 -213 -32 -357 -96 -470 -209
-86 -85 -129 -158 -160 -274 -43 -156 -43 -437 0 -595 64 -232 232 -382 500
-445 181 -43 256 -46 1132 -46 477 0 869 -4 918 -10 120 -14 193 -34 289 -81
193 -95 293 -269 293 -513 0 -303 -146 -496 -439 -579 l-78 -22 -1277 -5
c-905 -4 -1280 -8 -1288 -16 -7 -7 -10 -42 -8 -90 3 -74 4 -79 28 -85 42 -12
2930 -10 3065 2 375 32 644 162 784 378 84 130 116 269 108 461 -9 207 -61
353 -168 473 -85 96 -238 183 -388 222 -188 48 -173 48 -1151 54 -914 7 -926
7 -1005 29 -250 70 -393 211 -439 434 -20 96 -20 184 -1 285 41 218 186 364
430 435 l80 23 1278 5 c1121 4 1279 7 1287 20 13 20 13 127 0 151 -11 19 -38
19 -1603 18 -876 -1 -1603 -3 -1617 -5z"/>
<path d="M22620 4763 c-203 -22 -426 -77 -592 -147 -459 -192 -743 -532 -839
-1002 -26 -129 -36 -402 -20 -541 81 -695 563 -1155 1341 -1279 137 -22 1157
-32 1394 -15 657 50 1144 345 1376 834 96 203 134 388 134 662 0 206 -14 313
-59 470 -163 565 -668 937 -1380 1015 -83 9 -1273 12 -1355 3z m1099 -199
c211 -31 380 -107 510 -229 163 -154 258 -356 312 -660 20 -113 23 -164 23
-395 1 -288 -11 -397 -60 -579 -57 -210 -142 -360 -279 -489 -131 -124 -303
-201 -520 -232 -114 -16 -753 -13 -861 5 -493 80 -762 410 -825 1012 -17 170
-7 548 19 694 85 469 300 737 677 844 134 37 198 42 564 44 256 1 358 -3 440
-15z"/>
<path d="M9266 3354 c-19 -18 -22 -124 -6 -155 11 -19 37 -19 1438 -19 878 0
1433 4 1442 10 20 12 21 140 1 163 -12 16 -124 17 -1437 17 -1280 0 -1424 -2
-1438 -16z"/>
</g>
</svg>
